<?xml version="1.0" encoding="UTF-8"?>
<svg version="1.1" id="Layer_1" xmlns="http://www.w3.org/2000/svg" xmlns:xlink="http://www.w3.org/1999/xlink" x="0px" y="0px" viewBox="0 0 380 320" style="enable-background:new 0 0 380 320;" xml:space="preserve" fill="#fff">
<path fill="#4E5563" d="M0,11.8C0.2,3.6,6.3,0.2,14.2,0.2h351.6c7.8,0,14.2,5.2,14.2,11.6v212.1H0V11.8z"/>
<path fill="#EEEEEE" d="M0,253.3v-29.9h380v29.9c0,7.6-6.4,13.7-14.2,13.7H14.2C6.3,267,0,260.9,0,253.3z"/>
<rect x="18.4" y="21.2" filee="#CCCCCC" width="343.7" height="184.6"/>
<path fill="#CCCCCC" d="M255.1,314.1c-1.4-1.6-15.1-12.5-16.6-15.6c-1.2-3.4-4.3-31.1-4.3-31.1l-48.2,0v0l-40.3,0  c0,0-3.1,27.7-4.3,31.1c-1.5,3.1-15.1,14-16.6,15.6c-1.4,1.6,0,3.2,0,3.2s1.6,1.8,6,2.2c2.3,0.2,33.2,0.3,63,0.3v0  c27.1,0,52.9-0.1,55-0.3c4.4-0.4,6-2.2,6-2.2S256.5,315.7,255.1,314.1z"/>
<path fill="#EEEEEE" d="M255.1,312.7c-1.4-1.6-15.1-12.5-16.6-15.6c-1.2-3.4-4.3-31.1-4.3-31.1l-48.2,0v0l-40.3,0  c0,0-3.1,27.7-4.3,31.1c-1.5,3.1-15.1,14-16.6,15.6c-1.4,1.6,0,3.2,0,3.2s1.6,1.8,6,2.2c2.3,0.2,33.2,0.3,63,0.3v0  c27.1,0,52.9-0.1,55-0.3c4.4-0.4,6-2.2,6-2.2S256.5,314.3,255.1,312.7z"/>
<g>
	<path fill="#CCCCCC" d="M235.3,275.4l-90.6,0.1c0.4-4.2,0.9-8.4,0.9-8.4l40.6,0.1v0l48.1-0.1C234.4,267,234.8,271.1,235.3,275.4z"/>
</g>
<ellipse fill="#EEEEEE" cx="190.2" cy="10.7" rx="2.1" ry="2.1"/>
</svg>